PathFileType	4	(X/Y/Z)	c:/Users/goper/Files/vsCode/490R/osim_files/C08/C08_Fast_04.trc
DataRate	CameraRate	NumFrames	NumMarkers	Units                	OrigDataRate	OrigDataStartFrame	OrigNumFrames
250.00	250.00	6	36	mm	250.0	1477	2362
                Frame#	Time	LPSIS			LASIS			LTH1			LTH2			LTH3			LTH4			LLFE			LMFE			LSH1			LSH2			LSH3			LSH4			LLMAL			LMMAL			LCAL			LMTP5			LTOE			LMTP1			RPSIS			RASIS			RTH1			RTH2			RTH3			RTH4			RLFE			RMFE			RSH1			RSH2			RSH3			RSH4			RLMAL			RMMAL			RCAL			RMTP1			RTOE			RMTP5		
		X1	Y1	Z1	X2	Y2	Z2	X3	Y3	Z3	X4	Y4	Z4	X5	Y5	Z5	X6	Y6	Z6	X7	Y7	Z7	X8	Y8	Z8	X9	Y9	Z9	X10	Y10	Z10	X11	Y11	Z11	X12	Y12	Z12	X13	Y13	Z13	X14	Y14	Z14	X15	Y15	Z15	X16	Y16	Z16	X17	Y17	Z17	X18	Y18	Z18	X19	Y19	Z19	X20	Y20	Z20	X21	Y21	Z21	X22	Y22	Z22	X23	Y23	Z23	X24	Y24	Z24	X25	Y25	Z25	X26	Y26	Z26	X27	Y27	Z27	X28	Y28	Z28	X29	Y29	Z29	X30	Y30	Z30	X31	Y31	Z31	X32	Y32	Z32	X33	Y33	Z33	X34	Y34	Z34	X35	Y35	Z35	X36	Y36	Z36

1477	5.90400	-2731.21411	1024.27991	200.27902	-2945.86743	989.50317	262.98059	-2928.12524	719.12018	333.13065	-2958.68628	649.03680	316.70871	-2982.89185	579.19910	305.61365	-3030.38525	680.75482	300.28079	-2998.32227	534.30438	296.52979	-3006.22925	527.20343	168.34618	-2984.64673	401.56693	310.99359	-3001.07495	355.92310	309.12772	-3038.78296	415.09998	304.87494	-3048.46631	370.66776	303.70520	-3070.48706	91.96017	246.43994	-3092.29224	110.37554	161.43105	-3011.92969	70.31745	188.89638	-3193.12842	54.32022	270.93024	-3244.94458	96.61400	219.01706	-3218.08105	71.34100	164.05673	-2724.19995	1024.98657	140.99963	-2908.40210	988.42908	25.31281	-2805.15186	731.83960	-25.46265	-2794.63721	652.75049	-11.45997	-2782.05103	573.51190	-4.00028	-2870.38745	646.41107	7.99092	-2766.62109	506.71103	4.88807	-2777.75903	497.36575	132.38878	-2679.69556	463.03787	-1.56838	-2656.84204	424.70834	-8.96424	-2728.16968	427.65103	0.99858	-2701.31982	393.58838	-4.29685	-2475.14478	182.81276	49.90333	-2506.69775	168.91492	135.36823	-2416.32397	201.98123	121.22423	-2560.57861	45.66317	129.04625	-2578.79248	54.69587	73.44881	-2524.73853	56.49839	13.53576
1478	5.90800	-2735.45337	1024.87427	200.65388	-2951.87988	989.72986	263.11224	-2934.52710	720.21344	333.75110	-2965.07275	650.15076	317.33939	-2989.20410	580.25873	306.29926	-3036.66187	682.14130	300.63913	-3009.20435	537.08997	298.49399	-3011.89355	527.59796	168.08156	-2989.39087	402.20615	312.08020	-3005.14355	356.25757	309.75281	-3043.67334	415.20154	305.25012	-3052.85303	370.66721	303.92102	-3071.62866	91.62358	246.78903	-3093.34277	110.16907	161.55937	-3012.42480	70.63608	188.98830	-3193.85425	52.77306	271.01688	-3246.20801	94.51971	219.00511	-3218.76709	69.70543	164.10977	-2729.10181	1024.98767	141.22983	-2914.26978	988.55902	25.75533	-2810.67383	729.33569	-24.98849	-2803.06519	651.66217	-11.56309	-2792.44727	572.45123	-4.87923	-2878.97266	645.88068	7.45163	-2775.96704	505.74582	4.05413	-2788.35815	495.74167	131.59209	-2688.17969	461.10968	-2.22509	-2666.19629	425.03571	-9.51528	-2736.77173	426.77356	0.54646	-2710.16040	393.23428	-4.91739	-2480.76440	186.49287	49.52217	-2511.41431	171.97325	135.91214	-2422.94800	207.45683	121.05491	-2562.07544	46.60482	128.94556	-2580.43799	54.98478	73.40854	-2526.65674	58.41510	13.55371
1479	5.91200	-2741.31396	1025.17944	201.18163	-2957.71509	989.97144	263.22415	-2941.08423	721.37561	334.49719	-2971.59058	651.29041	318.08167	-2995.62964	581.36578	307.09134	-3042.98120	683.67194	300.89481	-3015.46802	537.98828	299.10767	-3017.11450	529.19696	168.83650	-2994.04614	402.88696	313.02850	-3010.17676	357.19855	310.71252	-3048.38525	415.29846	305.66315	-3057.11816	370.73184	304.12177	-3072.38696	91.45240	246.94771	-3094.21167	110.04030	161.66420	-3012.83521	70.90046	189.17569	-3194.37109	51.64241	270.81790	-3247.40771	92.69157	218.82855	-3219.28833	68.23901	163.96654	-2734.91650	1024.80725	141.74692	-2919.91406	988.34589	26.00719	-2818.06128	728.34100	-24.59156	-2811.64941	650.50946	-11.69080	-2801.93555	571.04486	-5.41767	-2887.69092	645.41058	6.96203	-2785.96924	504.49326	3.24019	-2799.32324	494.07642	130.74588	-2700.50415	462.38184	-2.72913	-2675.69800	425.27893	-10.12109	-2747.21069	426.16016	-0.42512	-2719.27881	392.88956	-5.50318	-2487.07373	190.17564	49.04374	-2517.04614	174.88631	135.60846	-2430.14038	213.06039	120.75465	-2563.75000	47.45401	128.14972	-2582.33032	55.43451	73.30722	-2528.62622	60.54055	13.67729
1480	5.91600	-2746.99805	1025.50635	201.60858	-2963.54614	990.27814	263.35587	-2947.55127	722.52905	335.20114	-2978.04785	652.43268	318.82547	-3002.02686	582.44037	307.81213	-3049.21265	685.16711	300.98291	-3021.63110	538.86322	299.69458	-3022.40454	530.03668	169.58525	-2998.62500	403.74167	314.02539	-3014.18555	357.78827	311.35956	-3053.04004	415.47150	306.10733	-3061.25000	370.86569	304.39224	-3072.70337	91.38629	246.92023	-3094.89868	109.94683	161.71146	-3013.30786	71.12439	189.34660	-3194.72021	50.87169	270.49631	-3248.45630	91.07200	218.45343	-3219.78735	66.92272	163.76511	-2741.71118	1024.46301	142.42703	-2925.64404	988.31317	26.41985	-2825.90210	727.33392	-24.35586	-2820.38184	649.32483	-11.82725	-2810.50562	569.49835	-5.62083	-2896.55029	644.97729	6.49168	-2796.21826	503.32935	2.40444	-2810.38965	492.33469	129.98798	-2709.08716	460.31747	-3.78548	-2685.40430	425.50351	-10.73896	-2755.66284	425.02899	-0.72607	-2728.62158	392.60669	-6.12146	-2493.81812	193.68637	50.15939	-2522.89868	177.90382	135.44145	-2437.51709	218.71201	120.58436	-2565.85571	48.98893	127.81599	-2584.49634	55.96153	73.16792	-2530.93726	62.96255	13.71448
1481	5.92000	-2752.73438	1025.84094	201.97923	-2969.32422	990.60815	263.51459	-2954.10620	723.70227	336.03299	-2984.54199	653.56628	319.73608	-3008.35645	583.52454	308.61789	-3055.32983	686.47998	300.89441	-3022.59253	537.58215	298.81183	-3027.41235	530.61072	171.15002	-3003.07617	404.62558	314.90659	-3018.11182	358.43497	311.99500	-3057.48535	415.67651	306.51700	-3065.33374	371.07040	304.75589	-3073.30566	91.31322	247.05064	-3095.41235	109.88714	161.70871	-3013.75415	71.30040	189.55992	-3195.36401	50.01744	270.37949	-3249.37598	89.46943	218.03595	-3220.24976	65.66955	163.53241	-2746.48633	1024.56287	142.43130	-2930.96997	988.71606	26.83088	-2833.80518	726.27948	-24.16415	-2829.16553	648.12067	-12.02812	-2821.33447	568.40979	-6.55612	-2905.47803	644.57336	6.07240	-2806.48511	502.08914	1.69161	-2821.78296	490.57361	129.31975	-2719.06934	460.55289	-3.89569	-2695.25073	425.74820	-11.38209	-2765.61816	424.34372	-1.34962	-2738.00513	392.28931	-6.64853	-2500.08716	197.98773	49.27656	-2529.09302	181.03535	135.18306	-2445.01025	224.53677	120.52562	-2567.90845	50.52980	127.59268	-2586.86108	56.48413	73.04839	-2533.48389	65.60085	13.79078
1482	5.92400	-2758.18848	1026.28650	202.16241	-2974.98779	990.95428	263.70148	-2960.64551	724.86261	336.91080	-2990.85693	654.63275	320.64905	-3014.64136	584.60168	309.43030	-3061.36865	687.58026	300.75204	-3028.39160	538.28772	299.46582	-3032.52930	531.35730	171.74481	-3007.36353	405.41898	315.67773	-3021.96729	359.12048	312.67780	-3061.86646	416.06592	306.75934	-3069.28174	371.23984	305.16736	-3073.87549	91.22193	247.15828	-3095.91064	109.80729	161.76686	-3014.09277	71.50012	189.69496	-3195.78467	49.35436	270.15796	-3250.22217	87.96303	217.62614	-3220.61865	64.46866	163.25670	-2753.22607	1024.18945	142.99660	-2936.97412	988.25208	27.33628	-2841.84351	725.26630	-24.00778	-2839.40771	647.35046	-12.58647	-2831.23340	567.19922	-7.11983	-2914.42871	644.16968	5.65572	-2817.53979	500.64725	1.00712	-2833.30884	488.82043	128.72266	-2729.00073	459.84784	-4.44413	-2705.33252	426.07126	-12.05955	-2776.98730	424.11206	-2.24936	-2746.85400	391.99780	-7.25634	-2507.00195	202.06015	48.96001	-2535.54907	184.21996	135.00990	-2453.10522	230.33260	120.32992	-2570.12866	52.21038	127.34227	-2589.60205	57.18988	72.84296	-2536.30225	68.46650	13.80268
